<svg class="icon icon--wishlist" xmlns="http://www.w3.org/2000/svg" width="16" height="15" viewBox="0 0 16 15" fill="none">
<path d="M8.02999 14.5799L1.91 8.45985C0.0799997 6.62985 0.0800022 3.74985 1.85 1.98985C3.62 0.219851 6.27999 0.689851 8.02999 2.15985C9.75999 0.709851 12.46 0.23985 14.18 1.95985C15.97 3.74985 15.97 6.64985 14.18 8.42985L8.02999 14.5799ZM4.64001 1.83985C3.88001 1.83985 3.14999 2.09985 2.55999 2.68985C1.17999 4.06985 1.17999 6.30985 2.55999 7.68985L8.02999 13.1599L13.44 7.74985C14.86 6.31985 14.86 4.04985 13.47 2.65985C12.06 1.24985 9.73 1.83985 8.38 3.18985L8.02999 3.53985L7.67999 3.18985C6.85999 2.36985 5.73001 1.83985 4.64001 1.83985Z" fill="black"/>
</svg>